HIERARCHY
ROOT Hips
{
    OFFSET 0.0 0.0 0.0
    CHANNELS 6 Xposition Yposition Zposition Zrotation Xrotation Yrotation
    JOINT LeftHipJoint
    {
        OFFSET 0.1 0.0 0.0
        CHANNELS 3 Zrotation Xrotation Yrotation
        JOINT LeftUpLeg
        {
            OFFSET 127.8027545584833 0.0 0.0
            CHANNELS 3 Zrotation Xrotation Yrotation
            JOINT LeftLeg
            {
                OFFSET 0.0 0.0 -430.31205195255734
                CHANNELS 3 Zrotation Xrotation Yrotation
                JOINT LeftFoot
                {
                    OFFSET 0.0 0.0 -400.2605155522834
                    CHANNELS 3 Zrotation Xrotation Yrotation
                    End Site
                    {
                        OFFSET 0.0 -0.1 0.0
                    }
                }
            }
        }
    }
    JOINT LowerBack
    {
        OFFSET 0.0 0.0 0.1
        CHANNELS 3 Zrotation Xrotation Yrotation
        JOINT Spine
        {
            OFFSET 0.0 0.0 230.26012866524854
            CHANNELS 3 Zrotation Xrotation Yrotation
            JOINT Spine1
            {
                OFFSET 0.0 0.0 252.54812259955926
                CHANNELS 3 Zrotation Xrotation Yrotation
                JOINT LeftShoulder
                {
                    OFFSET 0.1 0.0 0.0
                    CHANNELS 3 Zrotation Xrotation Yrotation
                    JOINT LeftArm
                    {
                        OFFSET 150.3437694162612 0.0 0.0
                        CHANNELS 3 Zrotation Xrotation Yrotation
                        JOINT LeftForeArm
                        {
                            OFFSET 279.1022571327061 0.0 0.0
                            CHANNELS 3 Zrotation Xrotation Yrotation
                            JOINT LeftHand
                            {
                                OFFSET 250.4022888976314 0.0 0.0
                                CHANNELS 3 Zrotation Xrotation Yrotation
                                End Site
                                {
                                    OFFSET 0.1 0.0 0.0
                                }
                            }
                        }
                    }
                }
                JOINT Neck
                {
                    OFFSET 0.0 0.0 0.1
                    CHANNELS 3 Zrotation Xrotation Yrotation
                    JOINT Neck1
                    {
                        OFFSET 0.0 0.0 108.23093601384151
                        CHANNELS 3 Zrotation Xrotation Yrotation
                        End Site
                        {
                            OFFSET 0.0 0.0 111.02356808076817
                        }
                    }
                }
                JOINT RightShoulder
                {
                    OFFSET -0.1 0.0 0.0
                    CHANNELS 3 Zrotation Xrotation Yrotation
                    JOINT RightArm
                    {
                        OFFSET -150.3437694162612 0.0 0.0
                        CHANNELS 3 Zrotation Xrotation Yrotation
                        JOINT RightForeArm
                        {
                            OFFSET -279.1022571327061 0.0 0.0
                            CHANNELS 3 Zrotation Xrotation Yrotation
                            JOINT RightHand
                            {
                                OFFSET -250.4022888976314 0.0 0.0
                                CHANNELS 3 Zrotation Xrotation Yrotation
                                End Site
                                {
                                    OFFSET -0.1 0.0 0.0
                                }
                            }
                        }
                    }
                }
            }
        }
    }
    JOINT RightHipJoint
    {
        OFFSET -0.1 0.0 0.0
        CHANNELS 3 Zrotation Xrotation Yrotation
        JOINT RightUpLeg
        {
            OFFSET -127.8027545584833 0.0 0.0
            CHANNELS 3 Zrotation Xrotation Yrotation
            JOINT RightLeg
            {
                OFFSET 0.0 0.0 -430.31205195255734
                CHANNELS 3 Zrotation Xrotation Yrotation
                JOINT RightFoot
                {
                    OFFSET 0.0 0.0 -400.2605155522834
                    CHANNELS 3 Zrotation Xrotation Yrotation
                    End Site
                    {
                        OFFSET 0.0 -0.1 0.0
                    }
                }
            }
        }
    }
}
MOTION
Frames: 5
Frame Time: 0.03333333333333333
0.0 0.0 837.3584376970294 29.909730412436588 -18.33307683983134 6.806773939189176 0.0 0.0 0.0 0.14894759448449318 9.168586452868631 -3.852006940766738 -0.8416389011366863 15.936729358228565 -4.342543715960411 0.0 0.0 0.0 0.0 0.0 0.0 0.1983010547658194 12.469099705276633 3.3578529918274316 -1.2226645565963206 1.2096076723166125e-15 -1.5774611519837503e-15 0.0 0.0 0.0 -92.60392185234214 15.85963089701034 47.939607936797486 -105.00230282768416 -1.0267935807074476e-14 -8.157222054844974e-15 -1.5902773407317584e-15 0.0 0.0 0.0 0.0 0.0 -12.811485538000554 -2.3888028551029983 -11.583811292494978 0.0 0.0 0.0 72.00473317190881 -4.8268416489832795 -41.700990102611044 117.97894655707547 -3.2772152374304202e-15 5.451932924630662e-15 0.0 0.0 -3.975693351829396e-16 0.0 0.0 0.0 0.19962155457896497 12.801410794761063 -8.264768894037669 -1.8165802293715168 13.817736164099598 4.636486599930783 0.0 0.0 -9.939233379573488e-16
0.0 0.0 837.3584376970294 29.876870129447955 -18.394049237296713 6.743249033091516 0.0 3.1805546814635168e-15 0.0 0.1428520368055569 9.17140382401951 -3.7889555488074875 -0.8464934105027258 16.152597399521156 -4.389918113884601 0.0 0.0 0.0 0.0 3.1805546814635168e-15 0.0 0.18916670817191586 12.420987588660473 3.2934893123164692 -1.2296278328680366 -2.7956232654917168e-15 1.1627770128249425e-15 0.0 0.0 3.975693351829396e-16 -92.62922043340151 15.811950591393893 48.00612952742196 -105.03479808121546 -2.5238915307747886e-15 1.9354326706612113e-15 0.0 0.0 0.0 0.0 0.0 3.975693351829396e-16 -12.685899579495441 -2.3685960466758793 -11.504913578090619 0.0 0.0 3.975693351829396e-16 71.60741162167575 -5.08966360501589 -41.723105702866405 118.43584670452479 -1.1047526099900311e-15 -4.3602038753112445e-15 0.0 0.0 1.5902773407317582e-15 0.0 3.1805546814635168e-15 0.0 0.19231619510181763 12.882454613188246 -8.190400826152882 -1.8215574995101382 13.920096974305663 4.6151071236831305 0.0 0.0 0.0
0.0 0.0 837.3584376970294 29.849288447717818 -18.441676313365388 6.692292227447495 0.0 0.0 0.0 0.13852579264979983 9.145953372526476 -3.7602098308224776 -0.8482447516093636 16.206464392297576 -4.37972310762534 0.0 0.0 -1.987846675914698e-16 0.0 0.0 0.0 0.18259116628347283 12.339004399122212 3.229587997545944 -1.242242695358992 -1.953251386557626e-15 -3.201916849269405e-15 0.0 -1.5902773407317584e-15 0.0 -92.66498175964769 15.849138702860504 48.11151281293011 -105.10187551263598 1.9339549514491747e-15 2.5250240251420808e-15 0.0 0.0 -1.5902773407317582e-15 0.0 -1.5902773407317584e-15 0.0 -12.493318402622078 -2.28395518622769 -11.387497496788743 0.0 -1.5902773407317584e-15 0.0 71.20090400036311 -5.319279617845952 -41.76112920882369 119.08530940811043 4.353872549247291e-15 -1.1294467621228882e-15 0.0 0.0 0.0 0.0 0.0 0.0 0.1891248389595977 13.031784493970036 -8.153973806573891 -1.8197464591099053 13.929289323146795 4.669955051209165 0.0 0.0 3.975693351829396e-16
0.0 0.0 837.3584376970294 29.83656202277634 -18.588826310550232 6.583690685440288 0.0 0.0 0.0 0.13325950201381903 9.276353199274547 -3.6669098534095372 -0.8459975865635444 16.426668027199437 -4.3616920260594565 0.0 0.0 0.0 0.0 0.0 0.0 0.1715924978442512 12.247732848997174 3.1758566296275115 -1.286297399496867 2.0323479096109668e-16 -3.953129647383894e-16 0.0 0.0 0.0 -92.6311491771237 15.789165715445035 48.460794877168475 -105.14716064079043 -1.5902023238646374e-14 1.54463465058897e-16 0.0 0.0 0.0 0.0 0.0 0.0 -12.441733390991732 -2.3256003508043444 -11.220049773696129 0.0 0.0 0.0 70.60466649933723 -5.686109995205615 -41.93369143897707 119.83100453915272 7.0985235087023224e-15 4.3658264429307793e-16 0.0 0.0 0.0 0.0 0.0 0.0 0.18347077533758635 13.34764526129236 -8.015381103243312 -1.7994224691826053 13.954867477550962 4.685772416924052 0.0 0.0 0.0
0.0 0.0 837.3584376970294 29.87880198880884 -18.572177827136564 6.591360929786046 0.0 0.0 0.0 0.13824982600729638 9.188542489404533 -3.7571746900593856 -0.8735340902263806 16.64940241412793 -4.259544343846177 0.0 0.0 0.0 0.0 0.0 0.0 0.17852072782595518 12.151490677513499 3.0716519630597543 -1.400660416922945 1.604736733828282e-15 -1.1731813253062167e-15 0.0 0.0 3.975693351829396e-16 -92.52479489646457 15.739888979699042 48.64571418911936 -105.26878640943649 -3.8605500420424634e-15 -5.0556765818240294e-15 0.0 0.0 0.0 0.0 0.0 3.975693351829396e-16 -12.36298000796188 -2.4330128745341697 -11.177368204846948 0.0 0.0 3.975693351829396e-16 69.91924107350448 -6.286220717632928 -41.98870443900263 120.60746092329961 1.575653505871325e-15 -2.762832624538609e-15 0.0 0.0 0.0 0.0 0.0 0.0 0.19339579845017824 13.3961054212444 -8.025371056039436 -1.7996126390634402 14.012746077248675 4.691739838431268 0.0 0.0 0.0
